<?xml version="1.0" encoding="utf-8"?>
<!-- Generator: Adobe Illustrator 24.1.2, SVG Export Plug-In . SVG Version: 6.00 Build 0)  -->
<svg version="1.1" id="Layer_1" xmlns="http://www.w3.org/2000/svg" xmlns:xlink="http://www.w3.org/1999/xlink" x="0px" y="0px"
	 viewBox="0 0 915 156" style="enable-background:new 0 0 915 156;" xml:space="preserve">
<style type="text/css">
	.st0{fill:#231F20;}
</style>
<g>
	<path class="st0" d="M212.74,17.16c-12.59,0-18.88,3.22-18.88,9.65v102.17c0,6.43,6.29,9.65,18.88,9.65v17.2h-78.25v-17.2
		c12.45,0,18.67-3.22,18.67-9.65V28.91l-39.02,126.93h-34.2L40.92,28.91v100.07c0,6.43,6.22,9.65,18.67,9.65v17.2H0.01v-17.2
		c12.45,0,18.67-3.22,18.67-9.65V26.81c0-6.43-6.23-9.65-18.67-9.65v-17.2h76.58l31.68,108.67L139.94-0.04h72.8V17.16z"/>
	<path class="st0" d="M365.05,47.16l-20.98,1.05c-0.84-17.9-8.67-26.85-23.5-26.85h-39.44V65.2h15.94c6.57,0,10.49-7.83,11.75-23.5
		h18.46l-3.15,65.46H306.1c-1.54-16.22-5.04-24.34-10.49-24.34h-14.48v51.61h31.89c22.1,0,33.99-13.29,35.67-39.86l21.4,1.47
		l-5.04,59.79H219.87v-17.2c12.45,0,18.67-3.22,18.67-9.65V26.81c0-6.43-6.23-9.65-18.67-9.65v-17.2h145.18V47.16z"/>
	<path class="st0" d="M515.89,47.16l-20.98,1.05c-0.84-17.9-8.67-26.85-23.5-26.85h-39.44V65.2h15.94c6.57,0,10.49-7.83,11.75-23.5
		h18.46l-3.15,65.46h-18.04c-1.54-16.22-5.04-24.34-10.49-24.34h-14.48v51.61h31.89c22.1,0,33.99-13.29,35.67-39.86l21.4,1.47
		l-5.04,59.79H370.71v-17.2c12.45,0,18.67-3.22,18.67-9.65V26.81c0-6.43-6.23-9.65-18.67-9.65v-17.2h145.18V47.16z"/>
	<path class="st0" d="M738.48,17.16c-12.59,0-18.88,3.22-18.88,9.65v102.17c0,6.43,6.29,9.65,18.88,9.65v17.2h-78.25v-17.2
		c12.45,0,18.67-3.22,18.67-9.65V28.91l-39.02,126.93h-34.2L566.66,28.91v100.07c0,6.43,6.22,9.65,18.67,9.65v17.2h-59.58v-17.2
		c12.45,0,18.67-3.22,18.67-9.65V26.81c0-6.43-6.23-9.65-18.67-9.65v-17.2h76.58L634,108.63L665.68-0.04h72.8V17.16z"/>
	<path class="st0" d="M897.72,132.33c1.4,4.2,7.06,6.29,16.99,6.29v17.2h-84.13v-17.2h16.15c4.05,0,6.08-1.26,6.08-3.78
		c0-0.56-0.21-1.4-0.63-2.52l-5.87-16.78h-56.64l-5.25,15.1c-0.42,1.12-0.63,2.03-0.63,2.73c0,3.5,3.15,5.24,9.44,5.24h11.96v17.2
		h-59.37l-0.21-17.2c6.01,0,10.38-0.52,13.11-1.57c2.73-1.05,4.44-2.55,5.14-4.51L810.86-0.04h42.38L897.72,132.33z M795.76,97.09
		h45.11L819.04,28.7L795.76,97.09z"/>
</g>
</svg>
