<?xml version="1.0" encoding="utf-8"?>
<!-- Generator: Adobe Illustrator 24.1.2, SVG Export Plug-In . SVG Version: 6.00 Build 0)  -->
<svg version="1.1" id="Layer_1" xmlns="http://www.w3.org/2000/svg" xmlns:xlink="http://www.w3.org/1999/xlink" x="0px" y="0px"
	 viewBox="0 0 260 189" style="enable-background:new 0 0 260 189;" xml:space="preserve">
<style type="text/css">
	.st0{fill:#231F20;}
</style>
<g>
	<path class="st0" d="M212.15,17.83c-12.5,0-18.74,3.2-18.74,9.58v101.42c0,6.39,6.25,9.58,18.74,9.58v17.08h-77.68v-17.08
		c12.36,0,18.53-3.19,18.53-9.58V29.5l-38.74,126H80.32l-38.74-126v99.34c0,6.39,6.18,9.58,18.54,9.58v17.08H0.98v-17.08
		c12.36,0,18.53-3.19,18.53-9.58V27.41c0-6.38-6.18-9.58-18.53-9.58V0.76h76.01l31.45,107.88L139.89,0.76h72.27V17.83z"/>
	<path class="st0" d="M223.4,178.61c6.25-3.2,10.55-6.46,12.91-9.79c2.36-3.33,3.54-6.6,3.54-9.79c0-2.92-1.18-4.37-3.54-4.37
		c-5.28,0-9.23-1.46-11.87-4.37c-2.64-2.92-3.96-7.01-3.96-12.29c0-5.83,1.73-10.31,5.21-13.43c3.47-3.12,7.98-4.69,13.54-4.69
		c6.38,0,11.42,1.98,15.1,5.94c3.68,3.96,5.52,9.68,5.52,17.18c0,11.25-2.67,20.23-8.02,26.97c-5.35,6.73-13.09,12.6-23.22,17.6
		L223.4,178.61z"/>
</g>
</svg>
